<?xml version="1.0" encoding="UTF-8" standalone="no"?>
<!DOCTYPE svg PUBLIC "-//W3C//DTD SVG 1.1//EN" "http://www.w3.org/Graphics/SVG/1.1/DTD/svg11.dtd">
<svg width="100%" height="100%" viewBox="0 0 96 96" version="1.1" xmlns="http://www.w3.org/2000/svg" xmlns:xlink="http://www.w3.org/1999/xlink" xml:space="preserve" xmlns:serif="http://www.serif.com/" style="fill-rule:evenodd;clip-rule:evenodd;stroke-linejoin:round;stroke-miterlimit:1.41421;">
    <g transform="matrix(8.80849,0,0,8.80849,-255.762,-316.654)">
        <path d="M33.952,43.651C33.948,43.51 33.946,43.405 33.946,43.334C33.946,42.92 34.005,42.563 34.122,42.262C34.208,42.036 34.346,41.807 34.538,41.577C34.679,41.409 34.931,41.164 35.297,40.841C35.662,40.519 35.899,40.262 36.009,40.071C36.118,39.879 36.173,39.67 36.173,39.444C36.173,39.034 36.013,38.673 35.692,38.363C35.372,38.052 34.979,37.897 34.514,37.897C34.065,37.897 33.69,38.038 33.389,38.319C33.089,38.6 32.891,39.04 32.798,39.637L31.714,39.508C31.811,38.708 32.101,38.094 32.584,37.668C33.066,37.243 33.704,37.03 34.497,37.03C35.337,37.03 36.007,37.258 36.507,37.715C37.007,38.172 37.257,38.725 37.257,39.374C37.257,39.749 37.169,40.094 36.993,40.411C36.817,40.727 36.473,41.112 35.962,41.565C35.618,41.87 35.393,42.094 35.288,42.239C35.182,42.383 35.104,42.549 35.054,42.737C35.003,42.924 34.973,43.229 34.966,43.651L33.952,43.651ZM33.888,45.766L33.888,44.565L35.089,44.565L35.089,45.766L33.888,45.766Z" style="fill:rgb(205,205,205);fill-rule:nonzero;"/>
    </g>
</svg>
