<?xml version="1.0" encoding="UTF-8" standalone="no"?>
<!DOCTYPE svg PUBLIC "-//W3C//DTD SVG 1.1//EN" "http://www.w3.org/Graphics/SVG/1.1/DTD/svg11.dtd">
<svg width="100%" height="100%" viewBox="0 0 96 96" version="1.1" xmlns="http://www.w3.org/2000/svg" xmlns:xlink="http://www.w3.org/1999/xlink" xml:space="preserve" xmlns:serif="http://www.serif.com/" style="fill-rule:evenodd;clip-rule:evenodd;stroke-linejoin:round;stroke-miterlimit:1.41421;">
    <g transform="matrix(1,0,0,1.00793,0,0)">
        <path d="M96,23.811C96,10.669 85.246,0 72,0L24,0C10.754,0 0,10.669 0,23.811L0,71.434C0,84.575 10.754,95.245 24,95.245L72,95.245C85.246,95.245 96,84.575 96,71.434L96,23.811Z" style="fill:rgb(235,235,235);"/>
        <path d="M72.155,0L72.31,0.002L72.465,0.004L72.619,0.008L72.773,0.012L72.927,0.017L73.081,0.024L73.234,0.031L73.387,0.039L73.54,0.048L73.693,0.058L73.845,0.069L73.998,0.081L74.149,0.094L74.301,0.108L74.452,0.123L74.603,0.139L74.754,0.155L74.905,0.173L75.055,0.191L75.205,0.211L75.355,0.231L75.504,0.252L75.653,0.275L75.802,0.298L75.95,0.322L76.098,0.346L76.246,0.372L76.394,0.399L76.541,0.426L76.688,0.455L76.834,0.484L76.981,0.514L77.126,0.545L77.272,0.577L77.417,0.61L77.562,0.644L77.707,0.678L77.851,0.714L77.995,0.75L78.139,0.787L78.282,0.825L78.425,0.864L78.567,0.904L78.709,0.945L78.851,0.986L78.993,1.028L79.134,1.071L79.274,1.115L79.415,1.16L79.555,1.206L79.694,1.252L79.833,1.299L79.972,1.347L80.11,1.396L80.248,1.446L80.386,1.496L80.523,1.548L80.66,1.6L80.797,1.653L80.933,1.706L81.068,1.761L81.203,1.816L81.338,1.872L81.473,1.929L81.606,1.987L81.74,2.046L81.873,2.105L82.006,2.165L82.138,2.226L82.27,2.287L82.401,2.35L82.532,2.413L82.663,2.477L82.793,2.541L82.922,2.607L83.051,2.673L83.18,2.74L83.308,2.807L83.436,2.876L83.563,2.945L83.69,3.015L83.816,3.085L83.942,3.157L84.068,3.229L84.193,3.301L84.317,3.375L84.441,3.449L84.564,3.524L84.687,3.6L84.81,3.676L84.932,3.753L85.053,3.831L85.174,3.91L85.295,3.989L85.415,4.069L85.534,4.15L85.653,4.231L85.772,4.313L85.889,4.395L86.007,4.479L86.124,4.563L86.24,4.648L86.356,4.733L86.471,4.819L86.586,4.906L86.7,4.993L86.814,5.081L86.927,5.17L87.039,5.259L87.151,5.349L87.263,5.44L87.373,5.532L87.484,5.623L87.593,5.716L87.703,5.809L87.811,5.903L87.919,5.998L88.027,6.093L88.134,6.189L88.24,6.285L88.346,6.382L88.451,6.48L88.555,6.578L88.659,6.677L88.762,6.777L88.865,6.877L88.967,6.977L89.069,7.079L89.17,7.181L89.27,7.283L89.37,7.386L89.469,7.49L89.567,7.594L89.665,7.699L89.762,7.805L89.859,7.911L89.955,8.017L90.05,8.124L90.145,8.232L90.239,8.34L90.332,8.449L90.425,8.559L90.517,8.669L90.608,8.779L90.699,8.89L90.789,9.002L90.878,9.114L90.967,9.227L91.055,9.34L91.143,9.454L91.229,9.568L91.316,9.683L91.401,9.799L91.486,9.915L91.57,10.031L91.653,10.148L91.736,10.265L91.818,10.383L91.899,10.502L91.979,10.621L92.059,10.741L92.138,10.861L92.217,10.981L92.295,11.102L92.372,11.224L92.448,11.346L92.523,11.468L92.598,11.591L92.672,11.715L92.746,11.839L92.818,11.963L92.89,12.088L92.961,12.213L93.032,12.339L93.102,12.465L93.17,12.592L93.239,12.719L93.306,12.847L93.373,12.975L93.439,13.104L93.504,13.233L93.568,13.362L93.632,13.492L93.695,13.622L93.757,13.753L93.818,13.884L93.879,14.016L93.938,14.148L93.997,14.28L94.055,14.413L94.113,14.547L94.169,14.68L94.225,14.814L94.28,14.949L94.334,15.084L94.388,15.219L94.44,15.355L94.492,15.491L94.543,15.628L94.593,15.765L94.642,15.902L94.69,16.04L94.738,16.178L94.785,16.316L94.831,16.455L94.876,16.594L94.92,16.734L94.964,16.874L95.006,17.014L95.048,17.155L95.089,17.296L95.129,17.437L95.168,17.579L95.206,17.721L95.244,17.863L95.28,18.006L95.316,18.149L95.351,18.293L95.385,18.436L95.418,18.581L95.45,18.725L95.482,18.87L95.512,19.015L95.542,19.16L95.57,19.306L95.598,19.452L95.625,19.599L95.651,19.745L95.676,19.892L95.7,20.039L95.723,20.187L95.746,20.335L95.767,20.483L95.787,20.632L95.807,20.78L95.826,20.929L95.843,21.079L95.86,21.228L95.876,21.378L95.891,21.528L95.905,21.679L95.918,21.829L95.93,21.98L95.941,22.131L95.951,22.283L95.96,22.435L95.969,22.587L95.976,22.739L95.982,22.891L95.988,23.044L95.992,23.197L95.996,23.35L95.998,23.504L96,23.657L96,23.811L96,71.434L96,71.587L95.998,71.741L95.996,71.895L95.992,72.048L95.988,72.201L95.982,72.353L95.976,72.506L95.969,72.658L95.96,72.81L95.951,72.962L95.941,73.113L95.93,73.264L95.918,73.415L95.905,73.566L95.891,73.717L95.876,73.867L95.86,74.017L95.843,74.166L95.826,74.315L95.807,74.464L95.787,74.613L95.767,74.762L95.746,74.91L95.723,75.058L95.7,75.205L95.676,75.353L95.651,75.5L95.625,75.646L95.598,75.793L95.57,75.939L95.542,76.084L95.512,76.23L95.482,76.375L95.45,76.52L95.418,76.664L95.385,76.808L95.351,76.952L95.316,77.096L95.28,77.239L95.244,77.381L95.206,77.524L95.168,77.666L95.129,77.808L95.089,77.949L95.048,78.09L95.006,78.231L94.964,78.371L94.92,78.511L94.876,78.651L94.831,78.79L94.785,78.929L94.738,79.067L94.69,79.205L94.642,79.343L94.593,79.48L94.543,79.617L94.492,79.754L94.44,79.89L94.388,80.026L94.334,80.161L94.28,80.296L94.225,80.43L94.169,80.565L94.113,80.698L94.055,80.832L93.997,80.964L93.938,81.097L93.879,81.229L93.818,81.361L93.757,81.492L93.695,81.623L93.632,81.753L93.568,81.883L93.504,82.012L93.439,82.141L93.373,82.27L93.306,82.398L93.239,82.526L93.17,82.653L93.102,82.779L93.032,82.906L92.961,83.032L92.89,83.157L92.818,83.282L92.746,83.406L92.672,83.53L92.598,83.654L92.523,83.777L92.448,83.899L92.372,84.021L92.295,84.143L92.217,84.264L92.138,84.384L92.059,84.504L91.979,84.624L91.899,84.743L91.818,84.861L91.736,84.979L91.653,85.097L91.57,85.214L91.486,85.33L91.401,85.446L91.316,85.562L91.229,85.676L91.143,85.791L91.055,85.905L90.967,86.018L90.878,86.131L90.789,86.243L90.699,86.354L90.608,86.465L90.517,86.576L90.425,86.686L90.332,86.795L90.239,86.904L90.145,87.013L90.05,87.12L89.955,87.228L89.859,87.334L89.762,87.44L89.665,87.546L89.567,87.65L89.469,87.755L89.37,87.858L89.27,87.962L89.17,88.064L89.069,88.166L88.967,88.267L88.865,88.368L88.762,88.468L88.659,88.568L88.555,88.667L88.451,88.765L88.346,88.862L88.24,88.96L88.134,89.056L88.027,89.152L87.919,89.247L87.811,89.341L87.703,89.435L87.593,89.529L87.484,89.621L87.373,89.713L87.263,89.805L87.151,89.895L87.039,89.985L86.927,90.075L86.814,90.163L86.7,90.252L86.586,90.339L86.471,90.426L86.356,90.512L86.24,90.597L86.124,90.682L86.007,90.766L85.889,90.849L85.772,90.932L85.653,91.014L85.534,91.095L85.415,91.176L85.295,91.256L85.174,91.335L85.053,91.414L84.932,91.491L84.81,91.568L84.687,91.645L84.564,91.721L84.441,91.795L84.317,91.87L84.193,91.943L84.068,92.016L83.942,92.088L83.816,92.159L83.69,92.23L83.563,92.3L83.436,92.369L83.308,92.437L83.18,92.505L83.051,92.572L82.922,92.638L82.793,92.704L82.663,92.768L82.532,92.832L82.401,92.895L82.27,92.958L82.138,93.019L82.006,93.08L81.873,93.14L81.74,93.199L81.606,93.258L81.473,93.315L81.338,93.372L81.203,93.428L81.068,93.484L80.933,93.538L80.797,93.592L80.66,93.645L80.523,93.697L80.386,93.748L80.248,93.799L80.11,93.849L79.972,93.897L79.833,93.946L79.694,93.993L79.555,94.039L79.415,94.085L79.274,94.13L79.134,94.174L78.993,94.217L78.851,94.259L78.709,94.3L78.567,94.341L78.425,94.381L78.282,94.419L78.139,94.457L77.995,94.495L77.851,94.531L77.707,94.566L77.562,94.601L77.417,94.635L77.272,94.667L77.126,94.699L76.981,94.73L76.834,94.761L76.688,94.79L76.541,94.818L76.394,94.846L76.246,94.873L76.098,94.898L75.95,94.923L75.802,94.947L75.653,94.97L75.504,94.992L75.355,95.014L75.205,95.034L75.055,95.053L74.905,95.072L74.754,95.089L74.603,95.106L74.452,95.122L74.301,95.137L74.149,95.15L73.998,95.163L73.845,95.175L73.693,95.186L73.54,95.196L73.387,95.206L73.234,95.214L73.081,95.221L72.927,95.227L72.773,95.233L72.619,95.237L72.465,95.24L72.31,95.243L72.155,95.244L72,95.245L24,95.245L23.845,95.244L23.69,95.243L23.535,95.24L23.381,95.237L23.227,95.233L23.073,95.227L22.919,95.221L22.766,95.214L22.613,95.206L22.46,95.196L22.307,95.186L22.155,95.175L22.002,95.163L21.851,95.15L21.699,95.137L21.548,95.122L21.397,95.106L21.246,95.089L21.095,95.072L20.945,95.053L20.795,95.034L20.645,95.014L20.496,94.992L20.347,94.97L20.198,94.947L20.05,94.923L19.902,94.898L19.754,94.873L19.606,94.846L19.459,94.818L19.312,94.79L19.166,94.761L19.019,94.73L18.874,94.699L18.728,94.667L18.583,94.635L18.438,94.601L18.293,94.566L18.149,94.531L18.005,94.495L17.861,94.457L17.718,94.419L17.575,94.381L17.433,94.341L17.291,94.3L17.149,94.259L17.007,94.217L16.866,94.174L16.726,94.13L16.585,94.085L16.445,94.039L16.306,93.993L16.167,93.946L16.028,93.897L15.89,93.849L15.752,93.799L15.614,93.748L15.477,93.697L15.34,93.645L15.203,93.592L15.067,93.538L14.932,93.484L14.797,93.428L14.662,93.372L14.527,93.315L14.394,93.258L14.26,93.199L14.127,93.14L13.994,93.08L13.862,93.019L13.73,92.958L13.599,92.895L13.468,92.832L13.337,92.768L13.207,92.704L13.078,92.638L12.949,92.572L12.82,92.505L12.692,92.437L12.564,92.369L12.437,92.3L12.31,92.23L12.184,92.159L12.058,92.088L11.932,92.016L11.807,91.943L11.683,91.87L11.559,91.795L11.436,91.721L11.313,91.645L11.19,91.568L11.068,91.491L10.947,91.414L10.826,91.335L10.705,91.256L10.585,91.176L10.466,91.095L10.347,91.014L10.228,90.932L10.111,90.849L9.993,90.766L9.876,90.682L9.76,90.597L9.644,90.512L9.529,90.426L9.414,90.339L9.3,90.252L9.186,90.163L9.073,90.075L8.961,89.985L8.849,89.895L8.737,89.805L8.627,89.713L8.516,89.621L8.407,89.529L8.297,89.435L8.189,89.341L8.081,89.247L7.973,89.152L7.866,89.056L7.76,88.96L7.654,88.862L7.549,88.765L7.445,88.667L7.341,88.568L7.238,88.468L7.135,88.368L7.033,88.267L6.931,88.166L6.83,88.064L6.73,87.962L6.63,87.858L6.531,87.755L6.433,87.65L6.335,87.546L6.238,87.44L6.141,87.334L6.045,87.228L5.95,87.12L5.855,87.013L5.761,86.904L5.668,86.795L5.575,86.686L5.483,86.576L5.392,86.465L5.301,86.354L5.211,86.243L5.122,86.131L5.033,86.018L4.945,85.905L4.857,85.791L4.771,85.676L4.684,85.562L4.599,85.446L4.514,85.33L4.43,85.214L4.347,85.097L4.264,84.979L4.182,84.861L4.101,84.743L4.021,84.624L3.941,84.504L3.862,84.384L3.783,84.264L3.705,84.143L3.628,84.021L3.552,83.899L3.477,83.777L3.402,83.654L3.328,83.53L3.254,83.406L3.182,83.282L3.11,83.157L3.039,83.032L2.968,82.906L2.898,82.779L2.83,82.653L2.761,82.526L2.694,82.398L2.627,82.27L2.561,82.141L2.496,82.012L2.432,81.883L2.368,81.753L2.305,81.623L2.243,81.492L2.182,81.361L2.121,81.229L2.062,81.097L2.003,80.964L1.945,80.832L1.887,80.698L1.831,80.565L1.775,80.43L1.72,80.296L1.666,80.161L1.612,80.026L1.56,79.89L1.508,79.754L1.457,79.617L1.407,79.48L1.358,79.343L1.31,79.205L1.262,79.067L1.215,78.929L1.169,78.79L1.124,78.651L1.08,78.511L1.036,78.371L0.994,78.231L0.952,78.09L0.911,77.949L0.871,77.808L0.832,77.666L0.794,77.524L0.756,77.381L0.72,77.239L0.684,77.096L0.649,76.952L0.615,76.808L0.582,76.664L0.55,76.52L0.518,76.375L0.488,76.23L0.458,76.084L0.43,75.939L0.402,75.793L0.375,75.646L0.349,75.5L0.324,75.353L0.3,75.205L0.277,75.058L0.254,74.91L0.233,74.762L0.213,74.613L0.193,74.464L0.174,74.315L0.157,74.166L0.14,74.017L0.124,73.867L0.109,73.717L0.095,73.566L0.082,73.415L0.07,73.264L0.059,73.113L0.049,72.962L0.04,72.81L0.031,72.658L0.024,72.506L0.018,72.353L0.012,72.201L0.008,72.048L0.004,71.895L0.002,71.741L0,71.587L0,71.434L0,23.811L0,23.657L0.002,23.504L0.004,23.35L0.008,23.197L0.012,23.044L0.018,22.891L0.024,22.739L0.031,22.587L0.04,22.435L0.049,22.283L0.059,22.131L0.07,21.98L0.082,21.829L0.095,21.679L0.109,21.528L0.124,21.378L0.14,21.228L0.157,21.079L0.174,20.929L0.193,20.78L0.213,20.632L0.233,20.483L0.254,20.335L0.277,20.187L0.3,20.039L0.324,19.892L0.349,19.745L0.375,19.599L0.402,19.452L0.43,19.306L0.458,19.16L0.488,19.015L0.518,18.87L0.55,18.725L0.582,18.581L0.615,18.436L0.649,18.293L0.684,18.149L0.72,18.006L0.756,17.863L0.794,17.721L0.832,17.579L0.871,17.437L0.911,17.296L0.952,17.155L0.994,17.014L1.036,16.874L1.08,16.734L1.124,16.594L1.169,16.455L1.215,16.316L1.262,16.178L1.31,16.04L1.358,15.902L1.407,15.765L1.457,15.628L1.508,15.491L1.56,15.355L1.612,15.219L1.666,15.084L1.72,14.949L1.775,14.814L1.831,14.68L1.887,14.547L1.945,14.413L2.003,14.28L2.062,14.148L2.121,14.016L2.182,13.884L2.243,13.753L2.305,13.622L2.368,13.492L2.432,13.362L2.496,13.233L2.561,13.104L2.627,12.975L2.694,12.847L2.761,12.719L2.83,12.592L2.898,12.465L2.968,12.339L3.039,12.213L3.11,12.088L3.182,11.963L3.254,11.839L3.328,11.715L3.402,11.591L3.477,11.468L3.552,11.346L3.628,11.224L3.705,11.102L3.783,10.981L3.862,10.861L3.941,10.741L4.021,10.621L4.101,10.502L4.182,10.383L4.264,10.265L4.347,10.148L4.43,10.031L4.514,9.915L4.599,9.799L4.684,9.683L4.771,9.568L4.857,9.454L4.945,9.34L5.033,9.227L5.122,9.114L5.211,9.002L5.301,8.89L5.392,8.779L5.483,8.669L5.575,8.559L5.668,8.449L5.761,8.34L5.855,8.232L5.95,8.124L6.045,8.017L6.141,7.911L6.238,7.805L6.335,7.699L6.433,7.594L6.531,7.49L6.63,7.386L6.73,7.283L6.83,7.181L6.931,7.079L7.033,6.977L7.135,6.877L7.238,6.777L7.341,6.677L7.445,6.578L7.549,6.48L7.654,6.382L7.76,6.285L7.866,6.189L7.973,6.093L8.081,5.998L8.189,5.903L8.297,5.809L8.407,5.716L8.516,5.623L8.627,5.532L8.737,5.44L8.849,5.349L8.961,5.259L9.073,5.17L9.186,5.081L9.3,4.993L9.414,4.906L9.529,4.819L9.644,4.733L9.76,4.648L9.876,4.563L9.993,4.479L10.111,4.395L10.228,4.313L10.347,4.231L10.466,4.15L10.585,4.069L10.705,3.989L10.826,3.91L10.947,3.831L11.068,3.753L11.19,3.676L11.313,3.6L11.436,3.524L11.559,3.449L11.683,3.375L11.807,3.301L11.932,3.229L12.058,3.157L12.184,3.085L12.31,3.015L12.437,2.945L12.564,2.876L12.692,2.807L12.82,2.74L12.949,2.673L13.078,2.607L13.207,2.541L13.337,2.477L13.468,2.413L13.599,2.35L13.73,2.287L13.862,2.226L13.994,2.165L14.127,2.105L14.26,2.046L14.394,1.987L14.527,1.929L14.662,1.872L14.797,1.816L14.932,1.761L15.067,1.706L15.203,1.653L15.34,1.6L15.477,1.548L15.614,1.496L15.752,1.446L15.89,1.396L16.028,1.347L16.167,1.299L16.306,1.252L16.445,1.206L16.585,1.16L16.726,1.115L16.866,1.071L17.007,1.028L17.149,0.986L17.291,0.945L17.433,0.904L17.575,0.864L17.718,0.825L17.861,0.787L18.005,0.75L18.149,0.714L18.293,0.678L18.438,0.644L18.583,0.61L18.728,0.577L18.874,0.545L19.019,0.514L19.166,0.484L19.312,0.455L19.459,0.426L19.606,0.399L19.754,0.372L19.902,0.346L20.05,0.322L20.198,0.298L20.347,0.275L20.496,0.252L20.645,0.231L20.795,0.211L20.945,0.191L21.095,0.173L21.246,0.155L21.397,0.139L21.548,0.123L21.699,0.108L21.851,0.094L22.002,0.081L22.155,0.069L22.307,0.058L22.46,0.048L22.613,0.039L22.766,0.031L22.919,0.024L23.073,0.017L23.227,0.012L23.381,0.008L23.535,0.004L23.69,0.002L23.845,0L24,0L72,0L72.155,0ZM24.01,5.953L23.883,5.953L23.766,5.954L23.65,5.956L23.533,5.959L23.417,5.962L23.301,5.966L23.185,5.971L23.07,5.976L22.955,5.982L22.84,5.989L22.725,5.997L22.61,6.005L22.496,6.014L22.382,6.024L22.268,6.034L22.155,6.045L22.041,6.057L21.928,6.07L21.815,6.083L21.703,6.097L21.59,6.111L21.478,6.126L21.366,6.142L21.254,6.159L21.143,6.176L21.032,6.194L20.921,6.213L20.81,6.232L20.7,6.252L20.589,6.273L20.48,6.294L20.37,6.316L20.26,6.338L20.151,6.362L20.042,6.386L19.934,6.41L19.825,6.435L19.717,6.461L19.609,6.488L19.501,6.515L19.394,6.543L19.287,6.571L19.18,6.6L19.074,6.63L18.967,6.66L18.861,6.691L18.755,6.723L18.65,6.755L18.545,6.788L18.44,6.821L18.335,6.855L18.231,6.89L18.127,6.926L18.023,6.961L17.919,6.998L17.816,7.035L17.713,7.073L17.61,7.111L17.508,7.15L17.406,7.19L17.304,7.23L17.203,7.271L17.101,7.312L17.001,7.354L16.9,7.397L16.8,7.44L16.7,7.484L16.6,7.528L16.501,7.573L16.402,7.619L16.303,7.665L16.205,7.712L16.107,7.759L16.009,7.807L15.911,7.855L15.814,7.904L15.718,7.954L15.621,8.004L15.525,8.055L15.429,8.106L15.334,8.158L15.239,8.21L15.144,8.263L15.05,8.317L14.956,8.371L14.862,8.425L14.769,8.48L14.676,8.536L14.583,8.592L14.491,8.649L14.399,8.706L14.307,8.764L14.216,8.823L14.125,8.882L14.035,8.941L13.945,9.001L13.855,9.062L13.766,9.123L13.677,9.184L13.589,9.246L13.5,9.309L13.413,9.372L13.325,9.436L13.238,9.5L13.152,9.564L13.065,9.63L12.98,9.695L12.894,9.761L12.809,9.828L12.725,9.895L12.641,9.963L12.557,10.031L12.474,10.1L12.391,10.169L12.308,10.238L12.226,10.309L12.145,10.379L12.063,10.45L11.983,10.522L11.902,10.594L11.822,10.666L11.743,10.739L11.664,10.813L11.585,10.887L11.507,10.961L11.429,11.036L11.352,11.111L11.275,11.187L11.199,11.263L11.123,11.34L11.048,11.417L10.973,11.494L10.898,11.572L10.824,11.65L10.751,11.729L10.678,11.809L10.605,11.888L10.533,11.968L10.461,12.049L10.39,12.13L10.32,12.211L10.249,12.293L10.18,12.375L10.111,12.458L10.042,12.541L9.974,12.625L9.906,12.709L9.839,12.793L9.772,12.878L9.706,12.963L9.64,13.048L9.575,13.134L9.51,13.22L9.446,13.307L9.383,13.394L9.32,13.482L9.257,13.569L9.195,13.658L9.133,13.746L9.072,13.835L9.012,13.925L8.952,14.014L8.893,14.104L8.834,14.195L8.775,14.286L8.718,14.377L8.66,14.468L8.604,14.56L8.548,14.653L8.492,14.745L8.437,14.838L8.382,14.931L8.329,15.025L8.275,15.119L8.222,15.213L8.17,15.308L8.118,15.403L8.067,15.498L8.017,15.594L7.967,15.69L7.917,15.786L7.869,15.883L7.82,15.98L7.773,16.077L7.726,16.175L7.679,16.273L7.633,16.371L7.588,16.47L7.543,16.568L7.499,16.668L7.456,16.767L7.413,16.867L7.37,16.967L7.329,17.067L7.288,17.168L7.247,17.269L7.207,17.37L7.168,17.472L7.129,17.574L7.091,17.676L7.054,17.778L7.017,17.881L6.98,17.984L6.945,18.087L6.91,18.191L6.875,18.295L6.842,18.399L6.809,18.503L6.776,18.608L6.744,18.713L6.713,18.818L6.682,18.923L6.653,19.029L6.623,19.135L6.595,19.241L6.567,19.348L6.539,19.455L6.512,19.562L6.486,19.669L6.461,19.777L6.436,19.885L6.412,19.993L6.389,20.101L6.366,20.21L6.344,20.318L6.322,20.427L6.302,20.537L6.281,20.646L6.262,20.756L6.243,20.866L6.225,20.977L6.208,21.087L6.191,21.198L6.175,21.309L6.16,21.42L6.145,21.532L6.131,21.644L6.118,21.756L6.105,21.868L6.093,21.98L6.082,22.093L6.072,22.206L6.062,22.319L6.053,22.433L6.044,22.546L6.037,22.66L6.03,22.774L6.024,22.888L6.018,23.003L6.013,23.118L6.009,23.233L6.006,23.348L6.003,23.463L6.002,23.579L6,23.695L6,23.821L6,71.424L6,71.55L6.002,71.666L6.003,71.781L6.006,71.897L6.009,72.012L6.013,72.127L6.018,72.242L6.024,72.356L6.03,72.471L6.037,72.585L6.044,72.699L6.053,72.812L6.062,72.926L6.072,73.039L6.082,73.152L6.093,73.264L6.105,73.377L6.118,73.489L6.131,73.601L6.145,73.713L6.16,73.824L6.175,73.936L6.191,74.047L6.208,74.158L6.225,74.268L6.243,74.378L6.262,74.489L6.281,74.598L6.302,74.708L6.322,74.817L6.344,74.926L6.366,75.035L6.389,75.144L6.412,75.252L6.436,75.36L6.461,75.468L6.486,75.576L6.512,75.683L6.539,75.79L6.567,75.897L6.595,76.003L6.623,76.11L6.653,76.216L6.682,76.321L6.713,76.427L6.744,76.532L6.776,76.637L6.809,76.742L6.842,76.846L6.875,76.95L6.91,77.054L6.945,77.158L6.98,77.261L7.017,77.364L7.054,77.467L7.091,77.569L7.129,77.671L7.168,77.773L7.207,77.874L7.247,77.976L7.288,78.077L7.329,78.177L7.37,78.278L7.413,78.378L7.456,78.478L7.499,78.577L7.543,78.676L7.588,78.775L7.633,78.874L7.679,78.972L7.726,79.07L7.773,79.168L7.82,79.265L7.869,79.362L7.917,79.458L7.967,79.555L8.017,79.651L8.067,79.746L8.118,79.842L8.17,79.937L8.222,80.031L8.275,80.126L8.329,80.22L8.382,80.313L8.437,80.407L8.492,80.5L8.548,80.592L8.604,80.684L8.66,80.776L8.718,80.868L8.775,80.959L8.834,81.05L8.893,81.14L8.952,81.23L9.012,81.32L9.072,81.41L9.133,81.499L9.195,81.587L9.257,81.675L9.32,81.763L9.383,81.851L9.446,81.938L9.51,82.024L9.575,82.111L9.64,82.197L9.706,82.282L9.772,82.367L9.839,82.452L9.906,82.536L9.974,82.62L10.042,82.704L10.111,82.787L10.18,82.869L10.249,82.951L10.32,83.033L10.39,83.115L10.461,83.196L10.533,83.276L10.605,83.356L10.678,83.436L10.751,83.515L10.824,83.594L10.898,83.673L10.973,83.751L11.048,83.828L11.123,83.905L11.199,83.982L11.276,84.058L11.352,84.134L11.429,84.209L11.507,84.284L11.585,84.358L11.664,84.432L11.743,84.505L11.822,84.578L11.902,84.651L11.983,84.723L12.063,84.795L12.145,84.866L12.226,84.936L12.308,85.006L12.391,85.076L12.474,85.145L12.557,85.214L12.641,85.282L12.725,85.35L12.809,85.417L12.894,85.483L12.98,85.55L13.066,85.615L13.152,85.68L13.238,85.745L13.325,85.809L13.413,85.873L13.5,85.936L13.588,85.999L13.677,86.061L13.766,86.122L13.855,86.183L13.945,86.244L14.035,86.304L14.125,86.363L14.216,86.422L14.307,86.48L14.399,86.538L14.491,86.596L14.583,86.653L14.676,86.709L14.769,86.764L14.862,86.82L14.956,86.874L15.05,86.928L15.144,86.982L15.239,87.035L15.334,87.087L15.429,87.139L15.525,87.19L15.621,87.241L15.718,87.291L15.814,87.341L15.911,87.39L16.009,87.438L16.107,87.486L16.205,87.533L16.303,87.58L16.402,87.626L16.501,87.671L16.6,87.716L16.7,87.761L16.8,87.805L16.9,87.848L17.001,87.89L17.102,87.932L17.203,87.974L17.304,88.015L17.406,88.055L17.508,88.094L17.61,88.133L17.713,88.172L17.816,88.21L17.919,88.247L18.023,88.283L18.127,88.319L18.231,88.355L18.335,88.389L18.44,88.423L18.545,88.457L18.65,88.49L18.755,88.522L18.861,88.554L18.967,88.585L19.074,88.615L19.18,88.645L19.287,88.674L19.394,88.702L19.501,88.73L19.609,88.757L19.717,88.784L19.825,88.809L19.933,88.835L20.042,88.859L20.151,88.883L20.26,88.906L20.37,88.929L20.479,88.951L20.589,88.972L20.7,88.993L20.81,89.013L20.921,89.032L21.032,89.051L21.143,89.069L21.254,89.086L21.366,89.102L21.478,89.118L21.59,89.134L21.702,89.148L21.815,89.162L21.928,89.175L22.041,89.188L22.155,89.199L22.268,89.211L22.382,89.221L22.496,89.231L22.61,89.24L22.725,89.248L22.84,89.256L22.955,89.262L23.07,89.269L23.185,89.274L23.301,89.279L23.417,89.283L23.533,89.286L23.649,89.289L23.766,89.29L23.883,89.292L24.009,89.292L71.991,89.292L72.117,89.292L72.234,89.29L72.351,89.289L72.467,89.286L72.583,89.283L72.699,89.279L72.815,89.274L72.93,89.269L73.045,89.262L73.16,89.256L73.275,89.248L73.39,89.24L73.504,89.231L73.618,89.221L73.732,89.211L73.845,89.199L73.959,89.188L74.072,89.175L74.185,89.162L74.298,89.148L74.41,89.134L74.522,89.118L74.634,89.102L74.746,89.086L74.857,89.069L74.968,89.051L75.079,89.032L75.19,89.013L75.3,88.993L75.411,88.972L75.521,88.951L75.63,88.929L75.74,88.906L75.849,88.883L75.958,88.859L76.067,88.835L76.175,88.809L76.283,88.784L76.391,88.757L76.499,88.73L76.606,88.702L76.713,88.674L76.82,88.645L76.926,88.615L77.033,88.585L77.139,88.554L77.245,88.522L77.35,88.49L77.455,88.457L77.56,88.423L77.665,88.389L77.769,88.355L77.873,88.319L77.977,88.283L78.081,88.247L78.184,88.21L78.287,88.172L78.39,88.133L78.492,88.094L78.594,88.055L78.696,88.014L78.797,87.974L78.898,87.932L78.999,87.89L79.1,87.848L79.2,87.805L79.3,87.761L79.4,87.716L79.499,87.671L79.598,87.626L79.697,87.58L79.795,87.533L79.893,87.486L79.991,87.438L80.088,87.39L80.186,87.341L80.282,87.291L80.379,87.241L80.475,87.19L80.571,87.139L80.666,87.087L80.761,87.035L80.856,86.982L80.95,86.928L81.044,86.874L81.138,86.82L81.231,86.764L81.324,86.709L81.417,86.653L81.509,86.596L81.601,86.538L81.693,86.48L81.784,86.422L81.875,86.363L81.965,86.304L82.055,86.244L82.145,86.183L82.234,86.122L82.323,86.061L82.412,85.999L82.5,85.936L82.587,85.873L82.675,85.809L82.762,85.745L82.848,85.68L82.934,85.615L83.02,85.55L83.106,85.483L83.191,85.417L83.275,85.35L83.359,85.282L83.443,85.214L83.526,85.145L83.609,85.076L83.692,85.006L83.774,84.936L83.855,84.866L83.937,84.795L84.018,84.723L84.098,84.651L84.178,84.578L84.257,84.505L84.336,84.432L84.415,84.358L84.493,84.284L84.571,84.209L84.648,84.134L84.725,84.058L84.801,83.982L84.877,83.905L84.952,83.828L85.027,83.751L85.102,83.673L85.176,83.594L85.249,83.515L85.322,83.436L85.395,83.357L85.467,83.276L85.539,83.196L85.61,83.115L85.68,83.033L85.751,82.952L85.82,82.869L85.889,82.787L85.958,82.704L86.026,82.62L86.094,82.536L86.161,82.452L86.228,82.367L86.294,82.282L86.36,82.197L86.425,82.111L86.49,82.024L86.554,81.938L86.617,81.851L86.68,81.763L86.743,81.675L86.805,81.587L86.867,81.498L86.928,81.41L86.988,81.32L87.048,81.23L87.107,81.14L87.166,81.05L87.225,80.959L87.282,80.868L87.34,80.776L87.396,80.684L87.452,80.592L87.508,80.5L87.563,80.407L87.617,80.313L87.671,80.22L87.725,80.126L87.778,80.031L87.83,79.937L87.882,79.842L87.933,79.746L87.983,79.651L88.033,79.555L88.083,79.458L88.131,79.362L88.18,79.265L88.227,79.168L88.274,79.07L88.321,78.972L88.367,78.874L88.412,78.775L88.457,78.676L88.501,78.577L88.544,78.478L88.587,78.378L88.63,78.278L88.671,78.177L88.712,78.077L88.753,77.976L88.793,77.874L88.832,77.773L88.871,77.671L88.909,77.569L88.946,77.467L88.983,77.364L89.02,77.261L89.055,77.157L89.09,77.054L89.125,76.95L89.158,76.846L89.191,76.742L89.224,76.637L89.256,76.532L89.287,76.427L89.318,76.321L89.347,76.216L89.377,76.11L89.405,76.003L89.433,75.897L89.461,75.79L89.488,75.683L89.514,75.576L89.539,75.468L89.564,75.36L89.588,75.252L89.611,75.144L89.634,75.035L89.656,74.926L89.678,74.817L89.698,74.708L89.719,74.598L89.738,74.488L89.757,74.378L89.775,74.268L89.792,74.158L89.809,74.047L89.825,73.936L89.84,73.825L89.855,73.713L89.869,73.601L89.882,73.489L89.895,73.377L89.907,73.264L89.918,73.152L89.928,73.039L89.938,72.926L89.947,72.812L89.956,72.698L89.963,72.585L89.97,72.471L89.976,72.356L89.982,72.242L89.987,72.127L89.991,72.012L89.994,71.897L89.997,71.781L89.998,71.666L90,71.55L90,71.424L90,23.821L90,23.695L89.998,23.579L89.997,23.463L89.994,23.348L89.991,23.233L89.987,23.118L89.982,23.003L89.976,22.888L89.97,22.774L89.963,22.66L89.956,22.546L89.947,22.433L89.938,22.319L89.928,22.206L89.918,22.093L89.907,21.98L89.895,21.868L89.882,21.756L89.869,21.644L89.855,21.532L89.84,21.42L89.825,21.309L89.809,21.198L89.792,21.087L89.775,20.976L89.757,20.866L89.738,20.756L89.719,20.646L89.698,20.537L89.678,20.427L89.656,20.318L89.634,20.21L89.611,20.101L89.588,19.993L89.564,19.885L89.539,19.777L89.514,19.669L89.488,19.562L89.461,19.455L89.433,19.348L89.405,19.242L89.377,19.135L89.347,19.029L89.318,18.924L89.287,18.818L89.256,18.713L89.224,18.608L89.191,18.503L89.158,18.399L89.125,18.295L89.09,18.191L89.055,18.087L89.02,17.984L88.983,17.881L88.946,17.778L88.909,17.676L88.871,17.574L88.832,17.472L88.793,17.37L88.753,17.269L88.712,17.168L88.671,17.067L88.63,16.967L88.587,16.867L88.544,16.767L88.501,16.667L88.457,16.568L88.412,16.47L88.367,16.371L88.321,16.273L88.274,16.175L88.227,16.077L88.18,15.98L88.131,15.883L88.083,15.786L88.033,15.69L87.983,15.594L87.933,15.498L87.882,15.403L87.83,15.308L87.778,15.213L87.725,15.119L87.671,15.025L87.618,14.931L87.563,14.838L87.508,14.745L87.452,14.653L87.396,14.56L87.34,14.468L87.282,14.377L87.225,14.286L87.166,14.195L87.107,14.104L87.048,14.014L86.988,13.925L86.928,13.835L86.867,13.746L86.805,13.658L86.743,13.569L86.68,13.482L86.617,13.394L86.554,13.307L86.49,13.22L86.425,13.134L86.36,13.048L86.294,12.963L86.228,12.878L86.161,12.793L86.094,12.709L86.026,12.625L85.958,12.541L85.889,12.458L85.82,12.375L85.75,12.293L85.68,12.211L85.61,12.13L85.539,12.049L85.467,11.969L85.395,11.888L85.322,11.809L85.249,11.729L85.176,11.65L85.102,11.572L85.027,11.494L84.952,11.417L84.877,11.34L84.801,11.263L84.725,11.187L84.648,11.111L84.571,11.036L84.493,10.961L84.415,10.887L84.336,10.813L84.257,10.739L84.178,10.666L84.098,10.594L84.017,10.522L83.937,10.45L83.855,10.379L83.774,10.309L83.692,10.239L83.609,10.169L83.526,10.1L83.443,10.031L83.359,9.963L83.275,9.895L83.191,9.828L83.106,9.761L83.02,9.695L82.934,9.63L82.848,9.564L82.762,9.5L82.675,9.436L82.587,9.372L82.5,9.309L82.411,9.246L82.323,9.184L82.234,9.123L82.145,9.062L82.055,9.001L81.965,8.941L81.875,8.882L81.784,8.823L81.693,8.764L81.601,8.706L81.509,8.649L81.417,8.592L81.324,8.536L81.231,8.48L81.138,8.425L81.044,8.371L80.95,8.317L80.856,8.263L80.761,8.21L80.666,8.158L80.571,8.106L80.475,8.055L80.379,8.004L80.282,7.954L80.186,7.904L80.088,7.855L79.991,7.807L79.893,7.759L79.795,7.712L79.697,7.665L79.598,7.619L79.499,7.573L79.4,7.528L79.3,7.484L79.2,7.44L79.1,7.397L78.999,7.354L78.898,7.312L78.797,7.271L78.696,7.23L78.594,7.19L78.492,7.15L78.39,7.111L78.287,7.073L78.184,7.035L78.081,6.998L77.977,6.961L77.873,6.926L77.769,6.89L77.665,6.855L77.56,6.821L77.455,6.788L77.35,6.755L77.245,6.723L77.139,6.691L77.033,6.66L76.926,6.63L76.82,6.6L76.713,6.571L76.606,6.543L76.499,6.515L76.391,6.488L76.283,6.461L76.175,6.435L76.066,6.41L75.958,6.386L75.849,6.362L75.74,6.338L75.63,6.316L75.52,6.294L75.411,6.273L75.3,6.252L75.19,6.232L75.079,6.213L74.968,6.194L74.857,6.176L74.746,6.159L74.634,6.142L74.522,6.126L74.41,6.111L74.297,6.097L74.185,6.083L74.072,6.07L73.959,6.057L73.845,6.045L73.732,6.034L73.618,6.024L73.504,6.014L73.39,6.005L73.275,5.997L73.16,5.989L73.045,5.982L72.93,5.976L72.815,5.971L72.699,5.966L72.583,5.962L72.467,5.959L72.35,5.956L72.234,5.954L72.117,5.953L71.99,5.953L24.01,5.953Z"/>
    </g>
    <g transform="matrix(7.24028,0,0,7.24028,-209.616,-252.263)">
        <path d="M38.241,42.754L39.378,43.042C39.139,43.975 38.711,44.687 38.092,45.177C37.472,45.668 36.716,45.913 35.821,45.913C34.895,45.913 34.142,45.724 33.562,45.347C32.982,44.97 32.541,44.424 32.238,43.709C31.935,42.995 31.784,42.227 31.784,41.407C31.784,40.512 31.955,39.732 32.297,39.066C32.638,38.4 33.125,37.894 33.756,37.548C34.387,37.203 35.081,37.03 35.839,37.03C36.698,37.03 37.421,37.249 38.007,37.686C38.593,38.124 39.001,38.739 39.231,39.532L38.112,39.795C37.913,39.17 37.624,38.715 37.245,38.43C36.866,38.145 36.389,38.002 35.815,38.002C35.155,38.002 34.603,38.161 34.16,38.477C33.717,38.793 33.405,39.218 33.225,39.751C33.046,40.285 32.956,40.834 32.956,41.401C32.956,42.131 33.062,42.769 33.275,43.314C33.488,43.859 33.819,44.266 34.268,44.536C34.718,44.805 35.204,44.94 35.727,44.94C36.364,44.94 36.903,44.756 37.345,44.389C37.786,44.022 38.085,43.477 38.241,42.754Z" style="fill-rule:nonzero;"/>
    </g>
    <g transform="matrix(3.26722,0,0,3.2469,62.8551,45.8533)">
        <rect x="3.867" y="0.131" width="3.24" height="1.061" style="fill-rule:nonzero;"/>
    </g>
</svg>
